Coordinates
version=1
nRows=24
nColumns=19
inDegrees=yes

Units are S.I. units (second, meters, Newtons, ...)
If the header above contains a line with 'inDegrees', this indicates whether rotational values are in degrees (yes) or radians (no).

endheader
time	pelvis_tilt	pelvis_list	pelvis_rotation	pelvis_tx	pelvis_ty	pelvis_tz	hip_flexion_r	hip_adduction_r	hip_rotation_r	knee_angle_r	knee_angle_r_beta	ankle_angle_r	hip_flexion_l	hip_adduction_l	hip_rotation_l	knee_angle_l	knee_angle_l_beta	ankle_angle_l
     13.37333333	     -9.36632149	      1.60637947	      4.63129864	      2.13946259	      1.03516064	      1.01519743	     -7.20228655	     -2.21347891	     -8.85376642	     45.61282024	      0.79609389	     -3.99349386	     27.45476255	      4.88522983	     -4.16262291	     11.46334627	      0.20007314	      6.72621424
     13.38000000	     -9.29384239	      1.60717139	      4.60299814	      2.13818663	      1.03144854	      1.01484681	     -6.00727552	     -2.06914696	     -7.61433802	     49.79957184	      0.86916649	     -3.73874651	     27.80435774	      4.84589266	     -4.16093557	     13.06094682	      0.22795653	      6.31391595
     13.38666667	     -9.19513759	      1.62747345	      4.63093622	      2.13664302	      1.02731148	      1.01465615	     -4.76867325	     -1.88488057	     -6.51761632	     54.02026560	      0.94283150	     -3.53273572	     28.33041892	      4.77823649	     -4.29521302	     15.30046968	      0.26704357	      5.99836709
     13.39333333	     -8.86182573	      1.68501116	      4.67485434	      2.13493917	      1.02300289	      1.01467618	     -3.73879853	     -1.69101541	     -5.57708192	     58.20202205	      1.01581692	     -3.35913748	     28.74623192	      4.65890627	     -4.55795113	     18.01958844	      0.31450115	      5.82739954
     13.40000000	     -8.83594666	      1.66056788	      4.84756051	      2.13294092	      1.01779175	      1.01472642	     -2.31652756	     -1.43568407	     -4.91349450	     62.39349267	      1.08897188	     -3.17931858	     29.64105795	      4.47792805	     -4.75618834	     21.15140109	      0.36916159	      5.86737440
     13.40666667	     -8.57582780	      1.65333143	      5.02540927	      2.13083107	      1.01248193	      1.01489791	     -1.12367382	     -1.21364240	     -4.44079156	     66.48164137	      1.16032353	     -2.99262278	     30.31392269	      4.24925783	     -4.95095604	     24.45168160	      0.42676235	      6.15508058
     13.41333333	     -8.25945738	      1.64720509	      5.24559749	      2.12861439	      1.00696225	      1.01505997	      0.02496170	     -1.03576203	     -4.15492649	     70.45221167	      1.22962306	     -2.79287016	     30.92535850	      4.01527137	     -5.06264973	     27.81752720	      0.48550744	      6.71803224
     13.42000000	     -8.06692570	      1.65489065	      5.50492267	      2.12621022	      1.00107617	      1.01515949	      1.34823879	     -0.97338307	     -4.07361054	     74.34513517	      1.29756739	     -2.49020439	     31.61965646	      3.82361643	     -5.07060540	     31.11544802	      0.54306702	      7.55250965
     13.42666667	     -7.81176083	      1.66155189	      5.76109985	      2.12372077	      0.99526539	      1.01520517	      2.62487974	     -0.97868721	     -4.10319632	     78.07197394	      1.36261300	     -2.17041577	     32.15736159	      3.64338224	     -4.99320730	     34.26701131	      0.59807217	      8.68049764
     13.43333333	     -7.56982689	      1.68466861	      6.01245581	      2.12114812	      0.98953994	      1.01514003	      3.94007572	     -1.09529291	     -4.22899416	     81.63072263	      1.42472488	     -1.82452833	     32.59048544	      3.50876115	     -4.85204620	     37.21146859	      0.64946265	     10.06217543
     13.44000000	     -7.42943282	      1.74852244	      6.24474655	      2.11850894	      0.98396603	      1.01493369	      5.40221704	     -1.34426322	     -4.38369265	     85.02735610	      1.48400732	     -1.41503345	     32.97092607	      3.46144760	     -4.66861403	     39.87052515	      0.69587194	     11.60915918
     13.44666667	     -7.34533137	      1.82855546	      6.43680030	      2.11586992	      0.97869078	      1.01461692	      6.95765690	     -1.70549107	     -4.55518864	     88.22365585	      1.53979327	     -0.99347507	     33.24013451	      3.45750704	     -4.48428681	     42.23516540	      0.73714270	     13.26752511
     13.45333333	     -7.38232414	      1.97100768	      6.58962465	      2.11328322	      0.97377913	      1.01415407	      8.67338761	     -2.21403414	     -4.69369310	     91.21302937	      1.59196768	     -0.53651022	     33.42663574	      3.56454358	     -4.29505392	     44.24396533	      0.77220287	     14.97705738
     13.46000000	     -7.43230565	      2.14441934	      6.68889691	      2.11078743	      0.96943072	      1.01358620	     10.43375122	     -2.81436414	     -4.78568456	     93.95119721	      1.63975773	     -0.09132578	     33.41622547	      3.71623599	     -4.14468012	     45.90666613	      0.80122247	     16.66112004
     13.46666667	     -7.49513719	      2.36727209	      6.71880360	      2.10842746	      0.96571438	      1.01298941	     12.24108801	     -3.48724158	     -4.78690899	     96.43032301	      1.68302664	      0.34464701	     33.20350023	      3.91287291	     -4.06072373	     47.22194677	      0.82417845	     18.25304464
     13.47333333	     -7.08874541	      2.56531550	      6.80181710	      2.10638334	      0.96327940	      1.01220687	     13.48930688	     -4.14185942	     -4.90808727	     98.49562215	      1.71907291	      0.69447904	     32.28678056	      4.10324161	     -3.86641515	     48.21659951	      0.84153842	     19.79701586
     13.48000000	     -7.41041146	      2.83583886	      6.63271992	      2.10440949	      0.96065748	      1.01166139	     15.67362042	     -4.86357838	     -4.64117024	    100.44570338	      1.75310824	      1.13429383	     31.91213810	      4.33839271	     -3.91907773	     48.81504152	      0.85198320	     21.08222730
     13.48666667	     -7.70395129	      2.91814620	      6.53845204	      2.10256598	      0.95863018	      1.01101496	     17.84029512	     -5.34971802	     -4.46632854	    102.03491110	      1.78084515	      1.39316672	     31.42823546	      4.43417118	     -3.83702928	     49.26200126	      0.85978412	     22.25267374
     13.49333333	     -7.47133649	      2.95029193	      6.50078666	      2.10107955	      0.95795691	      1.01030687	     19.34179277	     -5.75454799	     -4.47145777	    103.17145081	      1.80068151	      1.66743517	     30.21823045	      4.48416077	     -3.60876241	     49.44563439	      0.86298912	     23.34675788
     13.50000000	     -7.69686757	      3.15853310	      6.24644515	      2.09978337	      0.95745571	      1.00994228	     21.42646665	     -6.23207133	     -4.10629973	    104.12254596	      1.81728125	      1.92661186	     29.25146561	      4.61533244	     -3.74592090	     49.19984446	      0.85869928	     24.11127044
     13.50666667	     -7.62513127	      3.03592050	      6.19532948	      2.09868906	      0.95794150	      1.00942434	     23.07140111	     -6.35037397	     -4.13087196	    104.58818285	      1.82540815	      2.15506978	     27.93661544	      4.51586148	     -3.47792293	     48.85753187	      0.85272480	     24.86378061
     13.51333333	     -7.64640165	      2.91348111	      6.09892069	      2.09770347	      0.95892982	      1.00906764	     24.79654064	     -6.40762301	     -4.12352104	    104.75872554	      1.82838468	      2.36801084	     26.60185830	      4.38619579	     -3.28639791	     48.27663987	      0.84258632	     25.36370042
     13.52000000	     -7.74578057	      2.74043861	      6.00080755	      2.09686840	      0.96039656	      1.00877414	     26.54607942	     -6.37841340	     -4.16339418	    104.60500112	      1.82570168	      2.57577543	     25.25741007	      4.19199584	     -3.11880027	     47.50573416	      0.82913147	     25.71448965
     13.52666667	     -7.93234621	      2.53460885	      5.87737060	      2.09616221	      0.96231095	      1.00860540	     28.32400581	     -6.26834445	     -4.22126551	    104.14532632	      1.81767884	      2.77709967	     23.91087525	      3.96167244	     -2.95645875	     46.53312933	      0.81215632	     25.93409911
